<svg id="Layer_1" data-name="Layer 1" xmlns="http://www.w3.org/2000/svg" viewBox="0 0 100 100"><defs><style>.cls-1{fill:#fff;}.cls-2{fill:#1abc9c;}</style></defs><title>PT</title><path class="cls-1" d="M42.45,6.68A43.954,43.954,0,1,1,9.33,33.26,43.9789,43.9789,0,0,1,42.45,6.68ZM28.74,20.61a41.31105,41.31105,0,0,0-6.67.35c-1.81,1.01-1.24,3.29-1.43,5,.04,9.83.03,19.65.03,29.48-2.61,1.75-5.4,4.1-5.32,7.55-.38,3.67,2.43,6.37,5.24,8.2a44.10485,44.10485,0,0,0,.39,6.8c1.09,1.73,3.34,1.19,5.07,1.37,9.8-.04,19.6-.03,29.4-.02,1.75,2.63,4.13,5.39,7.59,5.31,3.63.34,6.33-2.45,8.13-5.23a43.22419,43.22419,0,0,0,6.82-.41c1.72-1.07,1.19-3.3,1.37-5-.04-9.82-.03-19.64-.02-29.47,2.6-1.74,5.37-4.1,5.31-7.54.37-3.65-2.42-6.36-5.23-8.17a46.154,46.154,0,0,0-.39-6.75c-1-1.84-3.33-1.24-5.05-1.44-9.81.04-19.62.03-29.43.02-1.75-2.62-4.12-5.41-7.6-5.31C33.28,14.99,30.61,17.84,28.74,20.61Z"/><path class="cls-1" d="M32.75,25.58c1.45-1.87,1.92-6.09,5.23-4.64.95,1.44,1.6,3.04,2.49,4.51,2.11.93,4.55.43,6.8.62a33.49737,33.49737,0,0,0,.39,6.49c1.34,1.55,3.92,1.53,4.98,3.36.57,3.11-3.38,3.11-5,4.86.058,1.09129.07514,2.28032.02667,3.55333-.043,1.12962-.13249,2.188-.25,3.16667-.55306.04285-.94632.05739-1.20834.0625-.13705.00267-.37275.00538-.70833.02083-.24249.01116-.41657.02083-.41667.02084a4.12573,4.12573,0,0,1-.60416.02083A1.78964,1.78964,0,0,1,44,47.5c-.42764-.18871-.52833-.72438-.8125-1.4375a9.54231,9.54231,0,0,0-.79167-1.52083,5.0793,5.0793,0,0,0-2.72916-2.20834,9.81955,9.81955,0,0,0-3.25-.66666A11.15634,11.15634,0,0,0,32.6575,43.155,11.2911,11.2911,0,0,0,28.79,47.27c-.69.02-2.09.07-2.78.09-.02-7.1-.01-14.2-.01-21.3C28.25,25.96,30.57,26.23,32.75,25.58Z"/><path class="cls-1" d="M52.64,26.01c7.1-.02,14.2-.01,21.3-.01.09,2.24-.15,4.55.46,6.74,1.86,1.47,6.04,1.9,4.68,5.21-1.44.95-3.05,1.61-4.52,2.51-.96,2.1-.43,4.56-.63,6.81a37.09126,37.09126,0,0,0-6.5.37c-1.77,1.51-1.5,5.13-4.42,5.09-2.14-.8-2.29-3.5-3.7-5.06a35.22171,35.22171,0,0,0-6.65-.41c.01-.68.03-2.02.04-2.7,2.58-1.75,5.33-4.1,5.28-7.53.4-3.7-2.46-6.37-5.25-8.23C52.71,28.1,52.66,26.7,52.64,26.01Z"/><path class="cls-1" d="M32.52,52.34c1.84-1.44,1.51-5.15,4.48-5.08,2.14.83,2.27,3.53,3.71,5.07a35.80893,35.80893,0,0,0,6.63.42c-.01.67-.03,2-.04,2.67-2.95,1.88-5.83,4.82-5.26,8.64.08,3.28,2.8,5.4,5.23,7.14.02.7.07,2.1.09,2.79-7.1.02-14.2.01-21.29.01-.09-2.23.13-4.52-.45-6.7-1.5-1.32-3.95-1.48-4.93-3.31-.64-3.32,3.87-2.83,5.07-5.06a42.8563,42.8563,0,0,0,.31-6.2A33.04073,33.04073,0,0,0,32.52,52.34Z"/><path class="cls-1" d="M52.75,52.66l2.68.04c1.75,2.59,4.12,5.33,7.54,5.28,3.68.38,6.38-2.46,8.23-5.25.7-.02,2.09-.07,2.79-.09.02,7.1.01,14.2.01,21.3-2.25.09-4.56-.15-6.74.46-1.46,1.86-1.92,6.03-5.21,4.69-.95-1.45-1.59-3.08-2.5-4.55-2.13-.91-4.57-.42-6.82-.61a32.634,32.634,0,0,0-.39-6.41c-1.27-1.93-5.28-1.52-4.99-4.51.58-2.2,3.55-2.24,4.99-3.77A36.197,36.197,0,0,0,52.75,52.66Z"/><path class="cls-2" d="M48.62,0h3.75A50.26559,50.26559,0,0,1,100,47.99v4.36A50.28036,50.28036,0,0,1,52,100H47.64A50.28925,50.28925,0,0,1,0,52.03v-4.4A50.24192,50.24192,0,0,1,48.62,0ZM42.45,6.68a43.94472,43.94472,0,1,0,33.79,8.03A44.08756,44.08756,0,0,0,42.45,6.68Z"/><path class="cls-2" d="M28.74,20.61133c1.87-2.77,4.54-5.62,8.21-5.26,3.48-.1,5.85,2.69,7.6,5.31,9.81.01,19.62.02,29.43-.02,1.72.2,4.05-.4,5.05,1.44a46.154,46.154,0,0,1,.39,6.75c2.81,1.81,5.6,4.52,5.23,8.17.06,3.44-2.71,5.8-5.31,7.54-.01,9.83-.02,19.65.02,29.47-.18,1.7.35,3.93-1.37,5a43.22419,43.22419,0,0,1-6.82.41c-1.8,2.78-4.5,5.57-8.13,5.23-3.46.08-5.84-2.68-7.59-5.31-9.8-.01-19.6-.02-29.4.02-1.73-.18-3.98.36-5.07-1.37a44.10485,44.10485,0,0,1-.39-6.8c-2.81-1.83-5.62-4.53-5.24-8.2-.08-3.45,2.71-5.8,5.32-7.55,0-9.83.01-19.65-.03-29.48.19-1.71-.38-3.99,1.43-5A41.31105,41.31105,0,0,1,28.74,20.61133Zm4.01,4.97c-2.18.65-4.5.38-6.75.48,0,7.1-.01,14.2.01,21.3.69-.02,2.09-.07,2.78-.09a11.29906,11.29906,0,0,1,3.8675-4.115,11.16448,11.16448,0,0,1,3.75917-1.48967,8.31071,8.31071,0,0,1,3.25.66666A5.58338,5.58338,0,0,1,41.83333,43.75a8.30683,8.30683,0,0,1,1.25,2.08333c.437.97532.453,1.40429.91667,1.66667.29346.16607.5366.10035,1.5.08333.795-.014,1.45382-.05107,1.91667-.08333.11752-.97862.207-2.037.25-3.16667.04844-1.27253.03126-2.46112-.02667-3.552,1.62-1.75,5.57-1.75,5-4.86-1.06-1.83-3.64-1.81-4.98-3.36a33.49744,33.49744,0,0,1-.39-6.49c-2.25-.19-4.69.31-6.8-.62-.89-1.47-1.54-3.07-2.49-4.51C34.67,19.49133,34.2,23.71133,32.75,25.58133Zm19.89.43c.02.69.07,2.09.09,2.79,2.79,1.86,5.65,4.53,5.25,8.23.05,3.43-2.7,5.78-5.28,7.53-.01.68-.03,2.02-.04,2.7a35.22171,35.22171,0,0,1,6.65.41c1.41,1.56,1.56,4.26,3.7,5.06,2.92.04,2.65-3.58,4.42-5.09a37.09126,37.09126,0,0,1,6.5-.37c.2-2.25-.33-4.71.63-6.81,1.47-.9,3.08-1.56,4.52-2.51,1.36-3.31-2.82-3.74-4.68-5.21-.61-2.19-.37-4.5-.46-6.74C66.84,26.00133,59.74,25.99133,52.64,26.01133Zm-20.12,26.33a33.04073,33.04073,0,0,1-6.45.39,42.8563,42.8563,0,0,1-.31,6.2c-1.2,2.23-5.71,1.74-5.07,5.06.98,1.83,3.43,1.99,4.93,3.31.58,2.18.36,4.47.45,6.7,7.09,0,14.19.01,21.29-.01-.02-.69-.07-2.09-.09-2.79-2.43-1.74-5.15-3.86-5.23-7.14-.57-3.82,2.31-6.76,5.26-8.64.01-.67.03-2,.04-2.67a35.80893,35.80893,0,0,1-6.63-.42c-1.44-1.54-1.57-4.24-3.71-5.07C34.03,47.19133,34.36,50.90133,32.52,52.34133Zm20.23.32a36.197,36.197,0,0,1-.41,6.58c-1.44,1.53-4.41,1.57-4.99,3.77-.29,2.99,3.72,2.58,4.99,4.51a32.634,32.634,0,0,1,.39,6.41c2.25.19,4.69-.3,6.82.61.91,1.47,1.55,3.1,2.5,4.55,3.29,1.34,3.75-2.83,5.21-4.69,2.18-.61,4.49-.37,6.74-.46,0-7.1.01-14.2-.01-21.3-.7.02-2.09.07-2.79.09-1.85,2.79-4.55,5.63-8.23,5.25-3.42.05-5.79-2.69-7.54-5.28Z"/></svg>